<svg xmlns="http://www.w3.org/2000/svg" viewBox="0 0 486.79 65.09">
  <defs>
    <style>.cls-1{fill:#1d1d1b;}</style>
  </defs>
  <g id="Layer_2" data-name="Layer 2">
    <g id="Layer_1-2" data-name="Layer 1">
      <path class="cls-1" d="M23.72,19.33A15.69,15.69,0,0,0,9.84,26.79l-.09-6.94H0v44.8H9.93V39.53c0-7,4-11.51,10.71-11.51,7.82,0,9.67,4.75,9.67,10V64.65h9.84V35.84C40.15,25.65,33.82,19.33,23.72,19.33ZM82.49,57.27c-1.67,0-2.55-.87-2.55-3V38.92c0-12.92-6.68-19.59-18.89-19.59-10.45,0-18.45,7-19.5,16.34h8.87c1.23-5.28,4.92-8.26,10.37-8.26,5.88,0,9.4,2.81,9.4,9.66v1.58L59.91,40C48,41.55,43.22,46.56,43.22,53.59s5.27,11.5,12.91,11.5c6.33,0,11.42-2.81,14.23-7.64.88,5,4,7.64,9.4,7.64a12.41,12.41,0,0,0,4.92-.79l-.09-7.46A5,5,0,0,1,82.49,57.27Zm-12.3-11.5c0,7.11-4.4,11.59-11,11.59-4.84,0-6.42-2-6.42-4.92,0-3.16,2.38-5.36,8.35-6.23l9-1.15ZM105.5,56.84c-7.64,0-12.65-5.8-12.65-14.67s4.57-14.59,12-14.59,10.45,4.83,10.45,10.63h9.84c0-11.42-7.73-18.88-20.12-18.88-13.79,0-22.31,9.83-22.31,23,0,13,8.52,22.75,22.22,22.75,13.18,0,21.79-8.25,22.84-19.67h-9.48A12.78,12.78,0,0,1,105.5,56.84Zm35-24.78c0-3.16,2.55-5.09,7.82-5.09s8.08,2.11,8.17,6.06h9c-.09-8.87-6.94-13.7-17-13.7-10.8,0-17.48,5.44-17.48,12.91,0,18.8,27.15,8.52,27.15,19.94,0,3.34-3,5.27-8.87,5.27-6.94,0-10.63-2.55-11.95-7.11h-9.14c1.76,10,9.31,14.75,20.47,14.75,11.86,0,18.89-4.92,18.89-13C167.53,32.15,140.47,42.52,140.47,32.06Zm59.46,0c0-3.16,2.54-5.09,7.82-5.09s8.08,2.11,8.16,6.06H225c-.08-8.87-6.94-13.7-17-13.7-10.8,0-17.48,5.44-17.48,12.91,0,18.8,27.14,8.52,27.14,19.94,0,3.34-3,5.27-8.87,5.27-6.94,0-10.63-2.55-12-7.11h-9.13c1.76,10,9.31,14.75,20.47,14.75,11.86,0,18.88-4.92,18.88-13C227,32.15,199.93,42.52,199.93,32.06Zm51.4,25.13c-7.91,0-13.18-4.83-13.44-14.23h33.29a26.34,26.34,0,0,0,.17-3.52c-.17-11.68-8.08-20.11-20.82-20.11-13.26,0-22.31,9.75-22.31,23.1,0,12.91,9.23,22.66,22.93,22.66,12.47,0,20.47-7,22.22-16.07h-9.13C263.1,53.76,258.18,57.19,251.33,57.19ZM250.53,27c6,0,10.2,3.07,11.25,9.22H238.59C240.17,30,244.47,27,250.53,27Zm34.26-.18V19.85H275v44.8H285V40.58c0-8.78,4.92-11.68,11.16-11.68a11.14,11.14,0,0,1,3,.26l.09-9.66a19,19,0,0,0-2.55-.17C290.93,19.33,287.07,22.49,284.79,26.79Zm40.26,23.63a16.09,16.09,0,0,0-1.15,4.66h-.17a13.4,13.4,0,0,0-1.23-4.66L311.43,19.85H300.8l17.31,44.8h11.24l17.22-44.8H336.11ZM353,0a6.34,6.34,0,0,0-6.5,6.32,6.51,6.51,0,0,0,13,0A6.34,6.34,0,0,0,353,0Zm-4.92,64.65h9.84V19.85h-9.84ZM383,56.84c-7.64,0-12.65-5.8-12.65-14.67s4.57-14.59,12-14.59,10.46,4.83,10.46,10.63h9.84c0-11.42-7.73-18.88-20.12-18.88-13.79,0-22.31,9.83-22.31,23,0,13,8.52,22.75,22.22,22.75,13.18,0,21.79-8.25,22.84-19.67h-9.49A12.77,12.77,0,0,1,383,56.84Zm76.76-26c0-3.17,2.55-5.1,7.82-5.1s8.08,2.11,8.17,6.06h9c-.09-8.87-6.94-13.7-17-13.7-10.81,0-17.48,5.44-17.48,12.91,0,18.8,27.14,8.52,27.14,19.94,0,3.34-3,5.27-8.87,5.27-6.94,0-10.63-2.54-11.95-7.11h-5a.43.43,0,0,1,0,0h-9.13c-1.15,4.74-6.07,8.17-12.92,8.17-7.9,0-13.17-4.83-13.44-14.23h33.3a26.34,26.34,0,0,0,.17-3.52c-.17-11.68-8.08-20.11-20.82-20.11-13.26,0-22.31,9.75-22.31,23.1,0,12.91,9.22,22.66,22.93,22.66,9.61,0,16.55-4.18,20-10.23,3.27,6,9.78,9,18.5,9,11.86,0,18.89-4.92,18.89-13C486.79,30.88,459.73,41.25,459.73,30.8Zm-31-3.83c6,0,10.19,3.07,11.25,9.22H416.8C418.39,30,422.69,27,428.75,27Z"/>
    </g>
  </g>
</svg>
